<svg width="40" height="40" viewBox="0 0 40 40" fill="none" xmlns="http://www.w3.org/2000/svg">
    <path fill-rule="evenodd" clip-rule="evenodd"
          d="M0 20C0 8.9543 8.9543 0 20 0C31.0457 0 40 8.9543 40 20C40 31.0457 31.0457 40 20 40C8.9543 40 0 31.0457 0 20ZM24.1439 22.2757C24.6509 21.6495 25.597 21.6235 26.1376 22.2209C26.6168 22.7505 26.5847 23.566 26.0654 24.0563L19.7697 30L13.9254 24.0365C13.4118 23.5124 13.4131 22.6734 13.9284 22.1509C14.4855 21.586 15.4082 21.6238 15.9173 22.2325L18.7889 25.6658L18.6716 12.4844C18.6643 11.6667 19.3251 11 20.1428 11C20.9681 11 21.632 11.6788 21.6137 12.5039L21.3196 25.7639L24.1439 22.2757Z"
          fill="white"/>
</svg>
