<svg width="51" height="28" viewBox="0 0 51 28" fill="none" xmlns="http://www.w3.org/2000/svg">
    <path d="M51 14.0824C51 17.9804 49.734 21.2745 47.2021 23.9647C44.6702 26.6549 41.5262 28 37.7701 28C32.8732 28 28.7136 25.5843 25.2913 20.7529C23.6498 22.8667 21.7995 24.5686 19.7406 25.8588C17.7095 27.1216 15.5949 27.7529 13.3969 27.7529C9.47381 27.7529 6.26023 26.4902 3.75614 23.9647C1.25205 21.4392 0 18.0627 0 13.8353C0 9.88235 1.25205 6.58824 3.75614 3.95294C6.28805 1.31765 9.50164 0 13.3969 0C18.2938 0 22.3421 2.38824 25.5417 7.16471C29.0196 2.49804 33.0957 0.164706 37.7701 0.164706C41.6653 0.164706 44.8372 1.44118 47.2856 3.99412C49.7619 6.51961 51 9.88235 51 14.0824ZM13.8142 19.3941C16.2627 19.3941 18.572 17.5412 20.7422 13.8353C19.6849 11.9686 18.5998 10.5824 17.4869 9.67647C16.374 8.74314 15.1219 8.27647 13.7308 8.27647C12.1727 8.27647 10.9067 8.81176 9.9329 9.88235C8.98691 10.9255 8.51391 12.2706 8.51391 13.9176C8.51391 15.5647 8.98691 16.8961 9.9329 17.9118C10.9067 18.9 12.2005 19.3941 13.8142 19.3941ZM37.1858 8.52353C34.7651 8.52353 32.428 10.349 30.1743 14C32.4002 17.7608 34.7651 19.6412 37.2692 19.6412C38.8273 19.6412 40.0794 19.0922 41.0254 17.9941C41.9714 16.8961 42.4444 15.5647 42.4444 14C42.4444 12.4078 41.9574 11.1039 40.9836 10.0882C40.0098 9.0451 38.7439 8.52353 37.1858 8.52353Z"
          fill="white"/>
</svg>
