<svg width="142" height="22" viewBox="0 0 142 22" fill="none" xmlns="http://www.w3.org/2000/svg">
    <path fill-rule="evenodd" clip-rule="evenodd"
          d="M59.3012 16.3547V8.72214C59.3012 7.74577 59.5445 6.95717 60.0312 6.35633C60.5179 5.75548 61.1928 5.45506 62.056 5.45506C62.9742 5.45506 63.6492 5.7414 64.0807 6.31408C64.5123 6.88676 64.7281 7.63311 64.7281 8.55315V9.08828H72.0007V7.5674C72.0007 6.68491 71.8997 5.87284 71.6977 5.13117C71.4957 4.38951 71.1743 3.6854 70.7335 3.01884C70.2928 2.35228 69.65 1.82654 68.8052 1.44163C67.9604 1.05671 66.9503 0.864258 65.7749 0.864258H65.4444C64.3241 0.864258 63.2864 1.08019 62.3315 1.51204C61.3765 1.94389 60.6924 2.36167 60.2791 2.76536C59.8659 3.16905 59.5216 3.57743 59.2461 3.99051V1.20223H51.8082V16.3547H59.3012ZM14.2608 21.8453C16.0238 21.8453 17.5849 21.6623 18.9439 21.2961C20.3029 20.93 21.3635 20.47 22.1257 19.9161C22.8878 19.3622 23.5077 18.7097 23.9851 17.9586C24.4626 17.2076 24.7794 16.5035 24.9355 15.8463C25.0917 15.1891 25.1697 14.5132 25.1697 13.8185V1.2008H17.6767V3.14415C15.932 1.66082 13.4251 0.919156 10.1561 0.919156H9.55008C6.53819 0.919156 4.33436 1.5998 2.93861 2.96108C1.54285 4.32236 0.844971 5.99814 0.844971 7.98843V8.49539C0.844971 10.5608 1.58876 12.2788 3.07634 13.6495C4.56393 15.0202 6.88713 15.7055 10.0459 15.7055H10.4867C13.8292 15.7055 16.235 14.9544 17.7042 13.4523V13.7621C17.7042 16.3345 16.2075 17.6207 13.2139 17.6207H13.1313C10.7438 17.6207 9.45826 17.1982 9.27461 16.3533H1.75405V16.4378C1.75405 16.8321 1.81374 17.2264 1.93311 17.6207C2.05248 18.015 2.32796 18.4797 2.75954 19.0148C3.19113 19.5499 3.76045 20.0146 4.46751 20.409C5.17457 20.8033 6.19384 21.1412 7.52532 21.4229C8.8568 21.7045 10.3949 21.8453 12.1396 21.8453H14.2608ZM12.8832 11.5948H12.7179C11.2303 11.5948 10.1422 11.285 9.4535 10.6653C8.7648 10.0457 8.42046 9.28528 8.42046 8.38402V8.2432C8.42046 7.37949 8.75562 6.6566 9.42595 6.07454C10.0963 5.49247 11.1936 5.20144 12.7179 5.20144H12.8832C14.4442 5.20144 15.6242 5.49717 16.4231 6.08862C17.222 6.68007 17.6214 7.41704 17.6214 8.29953V8.38402C17.6214 9.26651 17.2174 10.0223 16.4093 10.6513C15.6013 11.2803 14.4259 11.5948 12.8832 11.5948ZM42.1667 13.6506C40.1833 15.6785 37.6764 16.6924 34.6461 16.6924H34.4533C33.1494 16.6924 32.0107 16.5046 31.0374 16.1291C30.064 15.7536 29.3248 15.256 28.8198 14.6364C28.3147 14.0168 27.9428 13.3877 27.7041 12.7494C27.4653 12.111 27.346 11.4538 27.346 10.7778V1.20193H34.8665V8.44019C34.8665 9.49166 35.142 10.3366 35.693 10.975C36.2439 11.6134 37.1071 11.9326 38.2825 11.9326C39.4946 11.9326 40.4404 11.5852 41.1199 10.8905C41.7994 10.1958 42.1392 9.31329 42.1392 8.24304V1.20193H49.6046V16.3544H42.1667V13.6506ZM88.3645 13.6506C86.381 15.6785 83.8742 16.6924 80.8439 16.6924H80.6511C79.3472 16.6924 78.2085 16.5046 77.2351 16.1291C76.2618 15.7536 75.5226 15.256 75.0175 14.6364C74.5125 14.0168 74.1406 13.3877 73.9019 12.7494C73.6631 12.111 73.5437 11.4538 73.5437 10.7778V1.20193H81.0643V8.44019C81.0643 9.49166 81.3398 10.3366 81.8907 10.975C82.4417 11.6134 83.3049 11.9326 84.4802 11.9326C85.6923 11.9326 86.6381 11.5852 87.3177 10.8905C87.9972 10.1958 88.3369 9.31329 88.3369 8.24304V1.20193H95.8024V16.3544H88.3645V13.6506ZM105.499 16.3547V8.72214C105.499 7.74577 105.742 6.95717 106.229 6.35633C106.716 5.75548 107.391 5.45506 108.254 5.45506C109.172 5.45506 109.847 5.7414 110.279 6.31408C110.71 6.88676 110.926 7.63311 110.926 8.55315V9.08828H118.199V7.5674C118.199 6.68491 118.098 5.87284 117.896 5.13117C117.694 4.38951 117.372 3.6854 116.931 3.01884C116.491 2.35228 115.848 1.82654 115.003 1.44163C114.158 1.05671 113.148 0.864258 111.973 0.864258H111.642C110.522 0.864258 109.484 1.08019 108.529 1.51204C107.574 1.94389 106.89 2.36167 106.477 2.76536C106.064 3.16905 105.719 3.57743 105.444 3.99051V1.20223H98.006V16.3547H105.499ZM134.562 13.6506C132.579 15.6785 130.072 16.6924 127.042 16.6924H126.849C125.545 16.6924 124.406 16.5046 123.433 16.1291C122.459 15.7536 121.72 15.256 121.215 14.6364C120.71 14.0168 120.338 13.3877 120.1 12.7494C119.861 12.111 119.741 11.4538 119.741 10.7778V1.20193H127.262V8.44019C127.262 9.49166 127.537 10.3366 128.088 10.975C128.639 11.6134 129.503 11.9326 130.678 11.9326C131.89 11.9326 132.836 11.5852 133.515 10.8905C134.195 10.1958 134.535 9.31329 134.535 8.24304V1.20193H142V16.3544H134.562V13.6506Z"
          fill="white"/>
</svg>
